<?xml version="1.0" encoding="UTF-8"?>
<svg width="49px" height="45px" viewBox="0 0 49 45" version="1.1" xmlns="http://www.w3.org/2000/svg" xmlns:xlink="http://www.w3.org/1999/xlink">
    <!-- Generator: Sketch 46.2 (44496) - http://www.bohemiancoding.com/sketch -->
    <title>Shape</title>
    <desc>Created with Sketch.</desc>
    <defs></defs>
    <g id="Page-1" stroke="none" stroke-width="1" fill="none" fill-rule="evenodd">
        <path d="M24.4993907,27.6962692 C30.5994375,27.6962692 35.7056937,25.6657861 36.0150091,23.0153082 C35.1079901,20.522829 34.1187934,17.8048516 33.1469509,15.1333739 C32.4721738,17.038858 28.7455867,18.3823468 24.4999011,18.3823468 C20.2552363,18.3823468 16.5286493,17.038358 15.8528513,15.1338739 C14.8810088,17.8048516 13.8928329,20.522329 12.985814,23.0153082 C13.2941085,25.6657861 18.3993439,27.6962692 24.4993907,27.6962692 Z M24.4993907,10.9334089 C27.366428,10.9334089 30.0303175,10.0639161 30.8097311,8.71392738 C29.7352939,5.75745202 28.8119415,3.22097316 28.2285298,1.6204865 C27.8411199,0.553995383 26.0842493,0 24.4993907,0 C22.9145321,0 21.1576614,0.553995383 20.7697411,1.6204865 C20.1873503,3.22097316 19.2645083,5.75745202 18.1885398,8.71392738 C18.9684638,10.0639161 21.6333742,10.9334089 24.4993907,10.9334089 Z M46.9089341,30.1657486 L37.3247505,26.3842801 L38.4282817,29.400755 C38.3726458,32.5977284 32.0372947,35.1452071 24.4993907,35.1452071 C16.9625075,35.1452071 10.6261356,32.5977284 10.5715205,29.400755 L11.6740308,26.3842801 L2.09086808,30.1657486 C-0.595990447,31.2262398 -0.708283167,33.1902234 1.84076157,34.5287123 L19.8647639,43.9961334 C22.4138086,45.3346222 26.5859936,45.3346222 29.1350383,43.9961334 L47.1590406,34.5287123 C49.7085958,33.1902234 49.5957926,31.2262398 46.9089341,30.1657486 Z" id="Shape" fill="#FF9800" fill-rule="nonzero"></path>
    </g>
</svg>