<?xml version="1.0" encoding="UTF-8"?>
<svg width="32px" height="32px" viewBox="0 0 32 32" version="1.1" xmlns="http://www.w3.org/2000/svg" xmlns:xlink="http://www.w3.org/1999/xlink">
    <g id="Page-1" stroke="none" stroke-width="1" fill="none" fill-rule="evenodd">
        <g id="Desktop-HD-Copy-12" transform="translate(-641.000000, -257.000000)" fill-rule="nonzero" fill="#BBBBBB">
            <path d="M673,282.272727 C673,282.681818 672.924242,283.215909 672.772727,283.875 C672.621212,284.534091 672.462121,285.05303 672.295455,285.431818 C671.977273,286.189394 671.05303,286.992424 669.522727,287.840909 C668.098485,288.613636 666.689394,289 665.295455,289 C664.886364,289 664.488636,288.973485 664.102273,288.920455 C663.715909,288.867424 663.280303,288.772727 662.795455,288.636364 C662.310606,288.5 661.950758,288.390152 661.715909,288.306818 C661.481061,288.223485 661.060606,288.068182 660.454545,287.840909 C659.848485,287.613636 659.477273,287.477273 659.340909,287.431818 C657.856061,286.901515 656.530303,286.272727 655.363636,285.545455 C653.424242,284.348485 651.420455,282.715909 649.352273,280.647727 C647.284091,278.579545 645.651515,276.575758 644.454545,274.636364 C643.727273,273.469697 643.098485,272.143939 642.568182,270.659091 C642.522727,270.522727 642.386364,270.151515 642.159091,269.545455 C641.931818,268.939394 641.776515,268.518939 641.693182,268.284091 C641.609848,268.049242 641.5,267.689394 641.363636,267.204545 C641.227273,266.719697 641.132576,266.284091 641.079545,265.897727 C641.026515,265.511364 641,265.113636 641,264.704545 C641,263.310606 641.386364,261.901515 642.159091,260.477273 C643.007576,258.94697 643.810606,258.022727 644.568182,257.704545 C644.94697,257.537879 645.465909,257.378788 646.125,257.227273 C646.784091,257.075758 647.318182,257 647.727273,257 C647.939394,257 648.098485,257.022727 648.204545,257.068182 C648.477273,257.159091 648.878788,257.734848 649.409091,258.795455 C649.575758,259.083333 649.80303,259.492424 650.090909,260.022727 C650.378788,260.55303 650.643939,261.034091 650.886364,261.465909 C651.128788,261.897727 651.363636,262.30303 651.590909,262.681818 C651.636364,262.742424 651.768939,262.931818 651.988636,263.25 C652.208333,263.568182 652.371212,263.837121 652.477273,264.056818 C652.583333,264.276515 652.636364,264.492424 652.636364,264.704545 C652.636364,265.007576 652.420455,265.386364 651.988636,265.840909 C651.556818,266.295455 651.087121,266.712121 650.579545,267.090909 C650.07197,267.469697 649.602273,267.871212 649.170455,268.295455 C648.738636,268.719697 648.522727,269.068182 648.522727,269.340909 C648.522727,269.477273 648.560606,269.647727 648.636364,269.852273 C648.712121,270.056818 648.776515,270.212121 648.829545,270.318182 C648.882576,270.424242 648.988636,270.606061 649.147727,270.863636 C649.306818,271.121212 649.393939,271.265152 649.409091,271.295455 C650.560606,273.371212 651.878788,275.151515 653.363636,276.636364 C654.848485,278.121212 656.628788,279.439394 658.704545,280.590909 C658.734848,280.606061 658.878788,280.693182 659.136364,280.852273 C659.393939,281.011364 659.575758,281.117424 659.681818,281.170455 C659.787879,281.223485 659.943182,281.287879 660.147727,281.363636 C660.352273,281.439394 660.522727,281.477273 660.659091,281.477273 C660.931818,281.477273 661.280303,281.261364 661.704545,280.829545 C662.128788,280.397727 662.530303,279.92803 662.909091,279.420455 C663.287879,278.912879 663.704545,278.443182 664.159091,278.011364 C664.613636,277.579545 664.992424,277.363636 665.295455,277.363636 C665.507576,277.363636 665.723485,277.416667 665.943182,277.522727 C666.162879,277.628788 666.431818,277.791667 666.75,278.011364 C667.068182,278.231061 667.257576,278.363636 667.318182,278.409091 C667.69697,278.636364 668.102273,278.871212 668.534091,279.113636 C668.965909,279.356061 669.44697,279.621212 669.977273,279.909091 C670.507576,280.19697 670.916667,280.424242 671.204545,280.590909 C672.265152,281.121212 672.840909,281.522727 672.931818,281.795455 C672.977273,281.901515 673,282.060606 673,282.272727 Z" id="Shape"></path>
        </g>
    </g>
</svg>